<svg xmlns="http://www.w3.org/2000/svg" width="900" height="463" viewBox="0 0 900 463" role="img" aria-labelledby="title desc">
<title id="title">Variação em 7 dias: Investimentos EA FC: Saudi Pro League em 17/07 — Console (PS)</title>
<desc id="desc">Gráfico gerado a partir da tabela publicada neste artigo.</desc>
<rect width="100%" height="100%" rx="20" fill="#0f172a"/>
<text x="28" y="42" fill="#f8fafc" font-family="system-ui,sans-serif" font-size="23" font-weight="700">Variação em 7 dias</text>
<text x="28" y="70" fill="#94a3b8" font-family="system-ui,sans-serif" font-size="15">Dados do recorte publicado no artigo</text>
<text x="28" y="117" fill="#e2e8f0" font-family="system-ui,sans-serif" font-size="16">Sadio Mané</text>
<rect x="285" y="95" width="480" height="28" rx="7" fill="#22c55e"/>
<text x="775" y="116" fill="#f8fafc" font-family="system-ui,sans-serif" font-size="15" font-weight="700">+89.9%</text>
<text x="28" y="175" fill="#e2e8f0" font-family="system-ui,sans-serif" font-size="16">Salem Al Dawsari</text>
<rect x="285" y="153" width="360" height="28" rx="7" fill="#22c55e"/>
<text x="655" y="174" fill="#f8fafc" font-family="system-ui,sans-serif" font-size="15" font-weight="700">+67.4%</text>
<text x="28" y="233" fill="#e2e8f0" font-family="system-ui,sans-serif" font-size="16">Saeed Al Owairan</text>
<rect x="285" y="211" width="314" height="28" rx="7" fill="#22c55e"/>
<text x="609" y="232" fill="#f8fafc" font-family="system-ui,sans-serif" font-size="15" font-weight="700">+58.9%</text>
<text x="28" y="291" fill="#e2e8f0" font-family="system-ui,sans-serif" font-size="16">Moussa Diaby</text>
<rect x="285" y="269" width="201" height="28" rx="7" fill="#22c55e"/>
<text x="496" y="290" fill="#f8fafc" font-family="system-ui,sans-serif" font-size="15" font-weight="700">+37.6%</text>
<text x="28" y="349" fill="#e2e8f0" font-family="system-ui,sans-serif" font-size="16">Karim Benzema</text>
<rect x="285" y="327" width="101" height="28" rx="7" fill="#22c55e"/>
<text x="396" y="348" fill="#f8fafc" font-family="system-ui,sans-serif" font-size="15" font-weight="700">+18.9%</text>
<text x="28" y="407" fill="#e2e8f0" font-family="system-ui,sans-serif" font-size="16">Rúben Neves</text>
<rect x="285" y="385" width="96" height="28" rx="7" fill="#22c55e"/>
<text x="391" y="406" fill="#f8fafc" font-family="system-ui,sans-serif" font-size="15" font-weight="700">+17.9%</text>
</svg>
