<svg xmlns="http://www.w3.org/2000/svg" width="900" height="463" viewBox="0 0 900 463" role="img" aria-labelledby="title desc">
<title id="title">Variação em 7 dias: Investimentos EA FC: Saudi Pro League em 20/07 — PC</title>
<desc id="desc">Gráfico gerado a partir da tabela publicada neste artigo.</desc>
<rect width="100%" height="100%" rx="20" fill="#0f172a"/>
<text x="28" y="42" fill="#f8fafc" font-family="system-ui,sans-serif" font-size="23" font-weight="700">Variação em 7 dias</text>
<text x="28" y="70" fill="#94a3b8" font-family="system-ui,sans-serif" font-size="15">Dados do recorte publicado no artigo</text>
<text x="28" y="117" fill="#e2e8f0" font-family="system-ui,sans-serif" font-size="16">Moussa Diaby</text>
<rect x="285" y="95" width="480" height="28" rx="7" fill="#22c55e"/>
<text x="775" y="116" fill="#f8fafc" font-family="system-ui,sans-serif" font-size="15" font-weight="700">+51.0%</text>
<text x="28" y="175" fill="#e2e8f0" font-family="system-ui,sans-serif" font-size="16">Chris Smalling</text>
<rect x="285" y="153" width="281" height="28" rx="7" fill="#22c55e"/>
<text x="576" y="174" fill="#f8fafc" font-family="system-ui,sans-serif" font-size="15" font-weight="700">+29.9%</text>
<text x="28" y="233" fill="#e2e8f0" font-family="system-ui,sans-serif" font-size="16">Mohamed Simakan</text>
<rect x="285" y="211" width="170" height="28" rx="7" fill="#22c55e"/>
<text x="465" y="232" fill="#f8fafc" font-family="system-ui,sans-serif" font-size="15" font-weight="700">+18.1%</text>
<text x="28" y="291" fill="#e2e8f0" font-family="system-ui,sans-serif" font-size="16">Saeed Al Owairan</text>
<rect x="285" y="269" width="114" height="28" rx="7" fill="#22c55e"/>
<text x="409" y="290" fill="#f8fafc" font-family="system-ui,sans-serif" font-size="15" font-weight="700">+12.1%</text>
<text x="28" y="349" fill="#e2e8f0" font-family="system-ui,sans-serif" font-size="16">Joshua King</text>
<rect x="285" y="327" width="106" height="28" rx="7" fill="#22c55e"/>
<text x="401" y="348" fill="#f8fafc" font-family="system-ui,sans-serif" font-size="15" font-weight="700">+11.3%</text>
<text x="28" y="407" fill="#e2e8f0" font-family="system-ui,sans-serif" font-size="16">Theo Hernández</text>
<rect x="285" y="385" width="54" height="28" rx="7" fill="#22c55e"/>
<text x="349" y="406" fill="#f8fafc" font-family="system-ui,sans-serif" font-size="15" font-weight="700">+5.7%</text>
</svg>
