<svg xmlns="http://www.w3.org/2000/svg" width="900" height="463" viewBox="0 0 900 463" role="img" aria-labelledby="title desc">
<title id="title">Variação em 7 dias: Momentum de Saudi Pro League no EA FC em 01/06 — PS</title>
<desc id="desc">Gráfico gerado a partir da tabela publicada neste artigo.</desc>
<rect width="100%" height="100%" rx="20" fill="#0f172a"/>
<text x="28" y="42" fill="#f8fafc" font-family="system-ui,sans-serif" font-size="23" font-weight="700">Variação em 7 dias</text>
<text x="28" y="70" fill="#94a3b8" font-family="system-ui,sans-serif" font-size="15">Dados do recorte publicado no artigo</text>
<text x="28" y="117" fill="#e2e8f0" font-family="system-ui,sans-serif" font-size="16">Kingsley Coman</text>
<rect x="285" y="95" width="480" height="28" rx="7" fill="#22c55e"/>
<text x="775" y="116" fill="#f8fafc" font-family="system-ui,sans-serif" font-size="15" font-weight="700">+46.7%</text>
<text x="28" y="175" fill="#e2e8f0" font-family="system-ui,sans-serif" font-size="16">Enzo Millot</text>
<rect x="285" y="153" width="393" height="28" rx="7" fill="#22c55e"/>
<text x="688" y="174" fill="#f8fafc" font-family="system-ui,sans-serif" font-size="15" font-weight="700">+38.2%</text>
<text x="28" y="233" fill="#e2e8f0" font-family="system-ui,sans-serif" font-size="16">Firas Al Birekan</text>
<rect x="285" y="211" width="333" height="28" rx="7" fill="#22c55e"/>
<text x="628" y="232" fill="#f8fafc" font-family="system-ui,sans-serif" font-size="15" font-weight="700">+32.4%</text>
<text x="28" y="291" fill="#e2e8f0" font-family="system-ui,sans-serif" font-size="16">Darwin Núñez</text>
<rect x="285" y="269" width="298" height="28" rx="7" fill="#22c55e"/>
<text x="593" y="290" fill="#f8fafc" font-family="system-ui,sans-serif" font-size="15" font-weight="700">+29.0%</text>
<text x="28" y="349" fill="#e2e8f0" font-family="system-ui,sans-serif" font-size="16">Abdoulaye Doucouré</text>
<rect x="285" y="327" width="141" height="28" rx="7" fill="#22c55e"/>
<text x="436" y="348" fill="#f8fafc" font-family="system-ui,sans-serif" font-size="15" font-weight="700">+13.7%</text>
<text x="28" y="407" fill="#e2e8f0" font-family="system-ui,sans-serif" font-size="16">Chris Smalling</text>
<rect x="285" y="385" width="77" height="28" rx="7" fill="#22c55e"/>
<text x="372" y="406" fill="#f8fafc" font-family="system-ui,sans-serif" font-size="15" font-weight="700">+7.5%</text>
</svg>
