<svg xmlns="http://www.w3.org/2000/svg" width="900" height="463" viewBox="0 0 900 463" role="img" aria-labelledby="title desc">
<title id="title">Variação em 24h: Mercado EA FC em 20/07: Saudi Pro League — Console (PS)</title>
<desc id="desc">Gráfico gerado a partir da tabela publicada neste artigo.</desc>
<rect width="100%" height="100%" rx="20" fill="#0f172a"/>
<text x="28" y="42" fill="#f8fafc" font-family="system-ui,sans-serif" font-size="23" font-weight="700">Variação em 24h</text>
<text x="28" y="70" fill="#94a3b8" font-family="system-ui,sans-serif" font-size="15">Dados do recorte publicado no artigo</text>
<text x="28" y="117" fill="#e2e8f0" font-family="system-ui,sans-serif" font-size="16">Musab Al Juwair</text>
<rect x="285" y="95" width="480" height="28" rx="7" fill="#22c55e"/>
<text x="775" y="116" fill="#f8fafc" font-family="system-ui,sans-serif" font-size="15" font-weight="700">+59.7%</text>
<text x="28" y="175" fill="#e2e8f0" font-family="system-ui,sans-serif" font-size="16">Carlos Júnior</text>
<rect x="285" y="153" width="146" height="28" rx="7" fill="#22c55e"/>
<text x="441" y="174" fill="#f8fafc" font-family="system-ui,sans-serif" font-size="15" font-weight="700">+18.1%</text>
<text x="28" y="233" fill="#e2e8f0" font-family="system-ui,sans-serif" font-size="16">Cristiano Ronaldo</text>
<rect x="285" y="211" width="106" height="28" rx="7" fill="#22c55e"/>
<text x="401" y="232" fill="#f8fafc" font-family="system-ui,sans-serif" font-size="15" font-weight="700">+13.2%</text>
<text x="28" y="291" fill="#e2e8f0" font-family="system-ui,sans-serif" font-size="16">Cristiano Ronaldo</text>
<rect x="285" y="269" width="62" height="28" rx="7" fill="#22c55e"/>
<text x="357" y="290" fill="#f8fafc" font-family="system-ui,sans-serif" font-size="15" font-weight="700">+7.7%</text>
<text x="28" y="349" fill="#e2e8f0" font-family="system-ui,sans-serif" font-size="16">João Félix</text>
<rect x="285" y="327" width="39" height="28" rx="7" fill="#22c55e"/>
<text x="334" y="348" fill="#f8fafc" font-family="system-ui,sans-serif" font-size="15" font-weight="700">+4.9%</text>
<text x="28" y="407" fill="#e2e8f0" font-family="system-ui,sans-serif" font-size="16">João Félix</text>
<rect x="285" y="385" width="38" height="28" rx="7" fill="#22c55e"/>
<text x="333" y="406" fill="#f8fafc" font-family="system-ui,sans-serif" font-size="15" font-weight="700">+4.7%</text>
</svg>
