<svg xmlns="http://www.w3.org/2000/svg" width="900" height="463" viewBox="0 0 900 463" role="img" aria-labelledby="title desc">
<title id="title">Variação em 24h: Mercado EA FC em 23/07: Saudi Pro League — Console (PS)</title>
<desc id="desc">Gráfico gerado a partir da tabela publicada neste artigo.</desc>
<rect width="100%" height="100%" rx="20" fill="#0f172a"/>
<text x="28" y="42" fill="#f8fafc" font-family="system-ui,sans-serif" font-size="23" font-weight="700">Variação em 24h</text>
<text x="28" y="70" fill="#94a3b8" font-family="system-ui,sans-serif" font-size="15">Dados do recorte publicado no artigo</text>
<text x="28" y="117" fill="#e2e8f0" font-family="system-ui,sans-serif" font-size="16">Cristiano Ronaldo</text>
<rect x="285" y="95" width="480" height="28" rx="7" fill="#22c55e"/>
<text x="775" y="116" fill="#f8fafc" font-family="system-ui,sans-serif" font-size="15" font-weight="700">+41.1%</text>
<text x="28" y="175" fill="#e2e8f0" font-family="system-ui,sans-serif" font-size="16">Carlos Júnior</text>
<rect x="285" y="153" width="130" height="28" rx="7" fill="#22c55e"/>
<text x="425" y="174" fill="#f8fafc" font-family="system-ui,sans-serif" font-size="15" font-weight="700">+11.1%</text>
<text x="28" y="233" fill="#e2e8f0" font-family="system-ui,sans-serif" font-size="16">Rúben Neves</text>
<rect x="285" y="211" width="120" height="28" rx="7" fill="#22c55e"/>
<text x="415" y="232" fill="#f8fafc" font-family="system-ui,sans-serif" font-size="15" font-weight="700">+10.3%</text>
<text x="28" y="291" fill="#e2e8f0" font-family="system-ui,sans-serif" font-size="16">Riyad Mahrez</text>
<rect x="285" y="269" width="107" height="28" rx="7" fill="#22c55e"/>
<text x="402" y="290" fill="#f8fafc" font-family="system-ui,sans-serif" font-size="15" font-weight="700">+9.2%</text>
<text x="28" y="349" fill="#e2e8f0" font-family="system-ui,sans-serif" font-size="16">Iñigo Martínez</text>
<rect x="285" y="327" width="105" height="28" rx="7" fill="#22c55e"/>
<text x="400" y="348" fill="#f8fafc" font-family="system-ui,sans-serif" font-size="15" font-weight="700">+9.0%</text>
<text x="28" y="407" fill="#e2e8f0" font-family="system-ui,sans-serif" font-size="16">Cristiano Ronaldo</text>
<rect x="285" y="385" width="103" height="28" rx="7" fill="#22c55e"/>
<text x="398" y="406" fill="#f8fafc" font-family="system-ui,sans-serif" font-size="15" font-weight="700">+8.8%</text>
</svg>
